<svg width="702" height="582" viewBox="0 0 702 582" fill="none" xmlns="http://www.w3.org/2000/svg">
<path d="M326.201 211.736C345.648 300.381 367.612 396.678 367.612 396.678C367.612 396.678 317.39 324.228 283.423 258.031C249.456 191.834 215.753 104.531 215.753 104.531C215.753 104.531 232.694 82.6863 254.236 60.9646C275.779 39.2429 296.562 24.4862 296.562 24.4862C296.562 24.4862 306.755 123.092 326.201 211.736Z" fill="#62B3C5" fill-opacity="0.11" stroke="url(#paint0_linear_249_62)"/>
<path d="M304.812 98.5911C351.829 106.075 383.382 112.477 435.622 126.548C435.622 126.548 398.236 91.6932 368.299 69.9342C338.362 48.1753 296.562 24.4863 296.562 24.4863C296.562 24.4863 296.751 35.7754 300.023 61.1179C303.295 86.4604 304.812 98.5911 304.812 98.5911Z" fill="#43778B" fill-opacity="0.1" stroke="url(#paint1_linear_249_62)"/>
<path d="M324.068 202.007L666.683 215.225C666.683 215.225 614.019 183.722 501.667 146.051C389.315 108.38 304.575 97.5099 304.575 97.5099C304.575 97.5099 305.239 110.961 312.685 150.118C320.131 189.274 324.068 202.007 324.068 202.007Z" fill="#D7782D" fill-opacity="0.11" stroke="url(#paint2_linear_249_62)"/>
<path d="M666.683 215.225L700.788 328.98C700.788 328.98 582.316 279.055 473.096 245.229C363.875 211.403 324.384 202.04 324.384 202.04C324.384 202.04 410.015 196.373 496.107 200.05C582.199 203.728 666.683 215.225 666.683 215.225Z" fill="#DDAC2F" fill-opacity="0.11" stroke="url(#paint3_linear_249_62)"/>
<path d="M621.364 295.416L526.335 392.18C526.335 392.18 558.299 388.564 622.26 362.069C686.221 335.575 699.459 328.138 699.459 328.138L621.364 295.416Z" fill="#D7782D" fill-opacity="0.11" stroke="url(#paint4_linear_249_62)"/>
<path d="M285.376 468.831L248.568 337.54C248.568 337.54 240.832 359.632 231.052 429.761C221.272 499.889 225.304 518.267 225.304 518.267L285.376 468.831Z" fill="#C71107" fill-opacity="0.1" stroke="url(#paint5_linear_249_62)"/>
<path d="M285.376 468.831L248.568 337.54C248.568 337.54 240.832 359.632 231.052 429.761C221.272 499.889 225.304 518.267 225.304 518.267L285.376 468.831Z" fill="#C71107" fill-opacity="0.1" stroke="url(#paint6_linear_249_62)"/>
<path d="M285.376 468.831L248.568 337.54C248.568 337.54 240.832 359.632 231.052 429.761C221.272 499.889 225.304 518.267 225.304 518.267L285.376 468.831Z" fill="#C71107" fill-opacity="0.1" stroke="url(#paint7_linear_249_62)"/>
<path d="M285.376 468.831L367.845 396.353C367.845 396.353 332.401 346.337 298.291 284.704C264.182 223.07 215.753 104.532 215.753 104.532C215.753 104.532 210.909 155.449 233.864 270.517C256.819 385.585 285.376 468.831 285.376 468.831Z" fill="#43778B" fill-opacity="0.1" stroke="url(#paint8_linear_249_62)"/>
<path d="M368.865 392.73C435.843 330.552 513.876 257.878 513.876 257.878C513.876 257.878 493.326 325.531 453.18 388.535C413.034 451.538 335.776 546.184 335.776 546.184C335.776 546.184 308.237 542.986 278.468 535.803C248.7 528.62 225.28 518.156 225.28 518.156C225.28 518.156 301.886 454.908 368.865 392.73Z" fill="#E73026" fill-opacity="0.11" stroke="url(#paint9_linear_249_62)"/>
<path d="M621.37 295.359L513.616 258.128C513.616 258.128 491.447 321.437 455.33 382.214C419.213 442.992 335.776 546.183 335.776 546.183C335.776 546.183 382.378 524.115 470.483 445.352C558.589 366.59 621.37 295.359 621.37 295.359Z" fill="#C71107" fill-opacity="0.1" stroke="url(#paint10_linear_249_62)"/>
<g filter="url(#filter0_f_249_62)">
<path d="M197.75 226.25V215.75H203V226.25H215.25V235L203 233.25L204.75 245.5H197.75V233.25H185.5V228L197.75 226.25Z" fill="#D9D9D9"/>
<path d="M356.531 518.251L365.232 512.373L368.171 516.723L359.47 522.601L366.328 532.752L359.078 537.65L353.67 526.52L344.499 534.828L340.58 529.027L350.731 522.17L343.873 512.019L348.223 509.08L356.531 518.251Z" fill="#D9D9D9"/>
<circle cx="311.5" cy="210.5" r="3.5" fill="#D9D9D9"/>
<ellipse cx="519.75" cy="182.5" rx="1.75" ry="3.5" fill="#D9D9D9"/>
<ellipse cx="441" cy="278.75" rx="3.5" ry="5.25" fill="#D9D9D9"/>
<ellipse cx="563.5" cy="366.25" rx="3.5" ry="1.75" fill="#D9D9D9"/>
<ellipse cx="432.25" cy="473" rx="5.25" ry="3.5" fill="#D9D9D9"/>
<ellipse cx="315" cy="446.75" rx="3.5" ry="5.25" fill="#D9D9D9"/>
<circle cx="234.5" cy="452" r="3.5" fill="#D9D9D9"/>
<circle cx="10.5" cy="382" r="3.5" fill="#D9D9D9"/>
<circle cx="143.5" cy="277" r="3.5" fill="#D9D9D9"/>
<ellipse cx="50.75" cy="567.5" rx="5.25" ry="7" fill="#D9D9D9"/>
<ellipse cx="262.5" cy="541.25" rx="3.5" ry="1.75" fill="#D9D9D9"/>
<path d="M129.5 467.75V459L127.75 443.25L136.5 466L159.25 459L138.25 471.25L147 487L131.25 474.75L113.75 480L129.5 467.75Z" fill="#D9D9D9"/>
<path d="M335.693 335.874L343.458 331.84L356.627 323.025L340.474 341.279L357.174 358.239L336.622 345.252L326.68 360.278L330.289 340.654L317.562 327.545L335.693 335.874Z" fill="#D9D9D9"/>
</g>
<defs>
<filter id="filter0_f_249_62" x="0" y="172" width="574" height="409.5" filterUnits="userSpaceOnUse" color-interpolation-filters="sRGB">
<feFlood flood-opacity="0" result="BackgroundImageFix"/>
<feBlend mode="normal" in="SourceGraphic" in2="BackgroundImageFix" result="shape"/>
<feGaussianBlur stdDeviation="3.5" result="effect1_foregroundBlur_249_62"/>
</filter>
<linearGradient id="paint0_linear_249_62" x1="249.636" y1="34.7804" x2="330.798" y2="404.754" gradientUnits="userSpaceOnUse">
<stop stop-color="#D9D9D9"/>
<stop offset="1" stop-color="#404040"/>
</linearGradient>
<linearGradient id="paint1_linear_249_62" x1="348.4" y1="13.1147" x2="376.146" y2="139.595" gradientUnits="userSpaceOnUse">
<stop stop-color="#D9D9D9"/>
<stop offset="1" stop-color="#404040"/>
</linearGradient>
<linearGradient id="paint2_linear_249_62" x1="463.118" y1="62.7301" x2="504.382" y2="250.829" gradientUnits="userSpaceOnUse">
<stop stop-color="#D9D9D9"/>
<stop offset="1" stop-color="#404040"/>
</linearGradient>
<linearGradient id="paint3_linear_249_62" x1="490.66" y1="165.563" x2="534.511" y2="365.456" gradientUnits="userSpaceOnUse">
<stop stop-color="#D9D9D9"/>
<stop offset="1" stop-color="#404040"/>
</linearGradient>
<linearGradient id="paint4_linear_249_62" x1="599.735" y1="300.16" x2="615.713" y2="372.995" gradientUnits="userSpaceOnUse">
<stop stop-color="#D9D9D9"/>
<stop offset="1" stop-color="#404040"/>
</linearGradient>
<linearGradient id="paint5_linear_249_62" x1="222.376" y1="343.286" x2="259.134" y2="510.845" gradientUnits="userSpaceOnUse">
<stop stop-color="#D9D9D9"/>
<stop offset="1" stop-color="#404040"/>
</linearGradient>
<linearGradient id="paint6_linear_249_62" x1="222.376" y1="343.286" x2="259.134" y2="510.845" gradientUnits="userSpaceOnUse">
<stop stop-color="#D9D9D9"/>
<stop offset="1" stop-color="#404040"/>
</linearGradient>
<linearGradient id="paint7_linear_249_62" x1="222.376" y1="343.286" x2="259.134" y2="510.845" gradientUnits="userSpaceOnUse">
<stop stop-color="#D9D9D9"/>
<stop offset="1" stop-color="#404040"/>
</linearGradient>
<linearGradient id="paint8_linear_249_62" x1="248.88" y1="97.2645" x2="328.324" y2="459.41" gradientUnits="userSpaceOnUse">
<stop stop-color="#D9D9D9"/>
<stop offset="1" stop-color="#404040"/>
</linearGradient>
<linearGradient id="paint9_linear_249_62" x1="258.132" y1="552.96" x2="540.672" y2="286.265" gradientUnits="userSpaceOnUse">
<stop stop-color="#D9D9D9"/>
<stop offset="1" stop-color="#404040"/>
</linearGradient>
<linearGradient id="paint10_linear_249_62" x1="311.054" y1="519.992" x2="587.287" y2="259.25" gradientUnits="userSpaceOnUse">
<stop stop-color="#D9D9D9"/>
<stop offset="1" stop-color="#404040"/>
</linearGradient>
</defs>
</svg>
