<svg width="2908" height="1131" viewBox="0 0 2908 1131" fill="none" xmlns="http://www.w3.org/2000/svg">
<path d="M276.5 235.5C513.5 103 2661 60 2782 165.5C2903 271 2960 646.5 2844 787C2728 927.5 163.5 973.5 171.5 853C179.5 732.5 39.5 368 276.5 235.5Z" fill="#DA9A42" fill-opacity="0.33"/>
<path d="M314.398 661.039C347.039 660.389 382.913 659.638 422.261 658.776C1306.35 639.407 2046.58 695.357 702.555 751.842C423.042 763.589 745.705 811.509 539.679 788.966C397.847 773.447 406.87 770.83 368.538 741.853C336.03 717.279 248.201 676.652 306.299 663.788C310.995 662.748 313.604 661.836 314.398 661.039C329.968 645.418 -352.36 674.312 314.398 661.039Z" fill="#43778B"/>
<path d="M2570.32 138.671C2820.16 138.671 2442.67 307.671 2373.21 314.671C2303.75 321.671 1947.28 136.737 2092.07 164.775C2391.05 222.671 2280.29 138.671 2570.32 138.671Z" fill="#62B3C5"/>
<path d="M1232.05 134.128C1358.27 312.961 1288.15 380.254 1055.95 268.257C609.955 250.719 291.827 178.634 879.837 134.128C879.837 60.0513 958.683 0 1055.95 0C1153.21 0 1232.05 60.0513 1232.05 134.128Z" fill="#DB8642"/>
<path d="M2321.2 726.237C2363.68 786.734 2333.6 881.39 2254.01 937.656C2174.41 993.923 2075.45 990.493 2032.96 929.996C1990.47 869.499 1350.71 407.346 2100.15 718.577C2849.59 1029.81 2278.71 665.74 2321.2 726.237Z" fill="#DB8642"/>
</svg>
