<svg width="3087" height="1164" viewBox="0 0 3087 1164" fill="none" xmlns="http://www.w3.org/2000/svg">
<g filter="url(#filter0_f_17545_222)">
<path d="M2542.85 644.016C2866.85 584.602 2910.84 741.105 2848.91 830.107C2786.98 919.11 2364.86 931.871 2349.13 809.196C2300.79 755.472 2357 678.097 2542.85 644.016Z" fill="#C71107"/>
</g>
<g filter="url(#filter1_f_17545_222)">
<path d="M742.615 634.674C959.364 546.889 1314.9 617.122 1611.54 664.908C1630.29 668.852 1458.15 677.749 1550.49 675.793C1784.77 670.831 1605.48 834.617 1082.45 749.011C983.396 732.798 822.458 859.328 734.089 778.705C642.586 695.224 534.444 718.985 742.615 634.674Z" fill="#E73026"/>
</g>
<g filter="url(#filter2_f_17545_222)">
<path d="M329.801 672.856C525.436 636.982 521.842 658.305 521.842 658.305C521.842 658.305 877.442 722.686 823.422 758.13C690.79 845.151 799.754 831.69 507.176 817.181C305.761 807.193 324.146 803.203 308.024 768.695C294.352 739.431 217.581 693.434 329.801 672.856Z" fill="#43778B"/>
</g>
<g filter="url(#filter3_f_17545_222)">
<path d="M2775.9 300.671C3077.57 300.671 2621.77 469.671 2537.9 476.671C2454.04 483.671 2023.61 298.737 2198.44 326.775C2559.44 384.671 2425.71 300.671 2775.9 300.671Z" fill="#62B3C5"/>
</g>
<g filter="url(#filter4_f_17545_222)">
<path d="M1884.99 423.481C2142.15 449.976 2136.02 382.481 2103.39 300.634C2070.76 218.787 2226.73 296.14 2348.81 326.933C2452.66 353.129 2368.02 350.4 2447.93 399.476C2490.29 425.497 2586.08 468.911 2509.29 494.188C2334.04 551.879 2277.35 543.871 2136.02 556.704C1632.15 561.764 1627.82 396.985 1884.99 423.481Z" fill="#E7B833"/>
</g>
<g filter="url(#filter5_f_17545_222)">
<ellipse cx="935.555" cy="425" rx="212.497" ry="134" fill="#DB8642"/>
</g>
<defs>
<filter id="filter0_f_17545_222" x="2068.67" y="366.893" width="1068.13" height="796.167" filterUnits="userSpaceOnUse" color-interpolation-filters="sRGB">
<feFlood flood-opacity="0" result="BackgroundImageFix"/>
<feBlend mode="normal" in="SourceGraphic" in2="BackgroundImageFix" result="shape"/>
<feGaussianBlur stdDeviation="132" result="effect1_foregroundBlur_17545_222"/>
</filter>
<filter id="filter1_f_17545_222" x="359.039" y="328.83" width="1556.63" height="740.976" filterUnits="userSpaceOnUse" color-interpolation-filters="sRGB">
<feFlood flood-opacity="0" result="BackgroundImageFix"/>
<feBlend mode="normal" in="SourceGraphic" in2="BackgroundImageFix" result="shape"/>
<feGaussianBlur stdDeviation="132" result="effect1_foregroundBlur_17545_222"/>
</filter>
<filter id="filter2_f_17545_222" x="5.70294" y="388.015" width="1087.3" height="703.805" filterUnits="userSpaceOnUse" color-interpolation-filters="sRGB">
<feFlood flood-opacity="0" result="BackgroundImageFix"/>
<feBlend mode="normal" in="SourceGraphic" in2="BackgroundImageFix" result="shape"/>
<feGaussianBlur stdDeviation="132" result="effect1_foregroundBlur_17545_222"/>
</filter>
<filter id="filter3_f_17545_222" x="1893.06" y="36.6713" width="1248.78" height="704.194" filterUnits="userSpaceOnUse" color-interpolation-filters="sRGB">
<feFlood flood-opacity="0" result="BackgroundImageFix"/>
<feBlend mode="normal" in="SourceGraphic" in2="BackgroundImageFix" result="shape"/>
<feGaussianBlur stdDeviation="132" result="effect1_foregroundBlur_17545_222"/>
</filter>
<filter id="filter4_f_17545_222" x="1452.94" y="0.216187" width="1349.26" height="820.602" filterUnits="userSpaceOnUse" color-interpolation-filters="sRGB">
<feFlood flood-opacity="0" result="BackgroundImageFix"/>
<feBlend mode="normal" in="SourceGraphic" in2="BackgroundImageFix" result="shape"/>
<feGaussianBlur stdDeviation="132" result="effect1_foregroundBlur_17545_222"/>
</filter>
<filter id="filter5_f_17545_222" x="459.058" y="27" width="952.995" height="796" filterUnits="userSpaceOnUse" color-interpolation-filters="sRGB">
<feFlood flood-opacity="0" result="BackgroundImageFix"/>
<feBlend mode="normal" in="SourceGraphic" in2="BackgroundImageFix" result="shape"/>
<feGaussianBlur stdDeviation="132" result="effect1_foregroundBlur_17545_222"/>
</filter>
</defs>
</svg>
