<svg width="1440" height="698" viewBox="0 0 1440 698" fill="none" xmlns="http://www.w3.org/2000/svg">
<path d="M992.621 406.745C835.432 432.851 469.194 149.48 454.306 113.696C439.418 77.9121 461.473 53.888 483.408 61.1593C510.826 70.2486 572.16 70.7702 480.135 -28.0511C388.109 -126.872 625.472 -55.297 907.964 38.3498C1060.82 89.0227 1327.23 261.763 1327.93 342.667C1328.52 411.278 1082.79 391.769 992.621 406.745Z" fill="#43778B"/>
<path d="M-59.7896 311.074C-101.045 131.547 169.697 103.292 310.225 111.606C320.587 113.043 335.955 118.806 314.534 130.354C287.756 144.789 100.63 294.83 360.619 330.902C620.608 366.973 705.179 481.008 429.291 629.735C153.402 778.462 -8.22072 535.483 -59.7896 311.074Z" fill="#62B3C5"/>
</svg>
