<svg width="48" height="50" viewBox="0 0 48 50" fill="none" xmlns="http://www.w3.org/2000/svg">
<g opacity="0.94">
<path d="M12.8215 11.7563C15.4415 10.1587 17.9124 9.30667 18.4449 9.39187C18.7431 8.66766 19.3395 7.19368 19.3395 7.09142C23.327 5.25105 26.8373 6.3246 28.094 7.09142L28.9247 9.00847C34.0369 10.5932 35.7409 11.884 35.9539 12.3314C38.9573 16.8897 44.9641 23.7059 45.9226 27.4122C46.3691 29.1388 48.5653 38.09 47.8624 38.7929C47.1594 39.4958 43.6605 40.7247 42.8553 39.5535C41.4495 37.5087 40.9383 32.5882 39.8519 29.3931L34.9954 22.4278L34.1647 33.8023V36.7418C35.8048 40.2138 38.3311 47.554 35.3149 49.1387C31.2763 49.9567 22.6837 49.1387 18.8922 48.6275L18.7644 49.7778C17.3159 49.8843 13.8695 49.5861 11.6713 47.5412C10.5466 44.7295 12.8215 38.7441 14.0996 36.1028V33.5467L13.0771 22.3639C11.8417 24.1106 9.128 27.9745 8.15669 29.457C7.18538 30.9395 5.74973 36.8483 5.15331 39.6174C5.04823 40.0071 0.191705 39.4319 0.0412177 38.4672C-0.214389 36.8696 0.680222 30.0321 3.81141 24.0893C6.94259 18.1464 10.2655 13.9928 12.8215 11.7563Z" fill="#C8E2FF"/>
<path d="M17.1663 42.2513L13.5239 41.2289L16.4634 31.0047C17.1663 26.6593 19.1856 16.6779 21.6394 11.5146C21.4298 11.1936 21.2284 10.8503 21.0358 10.4922C19.7258 8.0562 18.824 4.9383 18.5083 3.52692L19.2751 1.29033C23.0069 -0.550036 26.709 0.523512 28.0935 1.29033L28.9881 3.33519C28.6473 4.93273 27.4928 8.95854 25.6013 12.2814C23.7099 15.6043 20.9365 26.7445 19.7863 31.8993L17.1663 42.2513Z" fill="#003D73"/>
<path d="M20.7042 3.40534L19.2983 1.29654C22.749 -0.556574 26.9026 0.465935 28.1168 1.29663C27.8825 1.57354 27.1966 2.39564 26.5831 3.21358C23.9632 2.2551 21.6201 2.93672 20.7042 3.40534Z" fill="#003D73"/>
<path d="M14.0996 27.9374C16.8333 28.5693 21.9413 29.3642 26.8011 29.2183C27.1384 28.7494 27.5239 28.4937 27.9663 28.5125C28.3289 28.5279 28.6823 28.7303 29.0244 29.0794C30.8948 28.896 32.6626 28.5383 34.1647 27.9374C34.3181 27.9374 34.2286 29.897 34.1647 30.8769C33.3168 31.1785 32.0918 31.5059 30.5909 31.7654C31.8787 34.8571 32.893 39.4559 33.4618 42.3792L31.1614 43.2738C30.7141 39.5888 29.4999 32.2316 28.2219 32.2827C26.9439 32.3338 27.0504 42.0597 27.2634 46.9162H24.1322C24.4221 43.0225 24.6852 36.3901 25.6525 32.2404C22.1852 32.3221 18.14 31.8988 14.0996 30.4295V27.9374Z" fill="#991B33"/>
<path d="M26.5196 3.21365L23.6301 8.13245C23.5449 7.94074 22.9539 7.29056 20.7046 3.40535C23.0051 2.28068 25.5398 2.80894 26.5196 3.21365Z" fill="#C8E2FF"/>
<path d="M21.0044 10.3829L22.8798 7.00726L23.6299 8.13249L21.5989 11.5848L21.0044 10.3829Z" fill="#003D73"/>
<path d="M0.0384409 37.4837C0.0550603 38.1879 4.84846 39.1588 4.95889 38.2505C5.06932 37.3423 0.125883 36.3208 0.0384409 37.4837Z" fill="#003D73"/>
<path d="M47.071 37.9439C46.7617 37.311 42.0604 38.368 42.3395 39.2393C42.667 40.2618 47.4517 38.9838 47.071 37.9439Z" fill="#003D73"/>
</g>
</svg>
